<svg width="24" height="24" viewBox="0 0 24 24" fill="none" xmlns="http://www.w3.org/2000/svg">
<path fill-rule="evenodd" clip-rule="evenodd" d="M11.9821 0.284421C11.9821 0.284421 18.8511 -0.0238659 22.4927 6.88047H11.3976C11.3976 6.88047 9.30385 6.81304 7.51514 9.35319C7.00133 10.4193 6.44898 11.5176 7.06877 13.6821C6.17602 12.1695 2.32886 5.4707 2.32886 5.4707C2.32886 5.4707 5.04242 0.557383 11.9821 0.284421V0.284421V0.284421Z" fill="#EF3F36"/>
<path fill-rule="evenodd" clip-rule="evenodd" d="M22.1361 17.8119C22.1361 17.8119 18.9665 23.9166 11.1694 23.6148C12.1328 21.9481 16.7186 14.0065 16.7186 14.0065C16.7186 14.0065 17.8265 12.2274 16.5195 9.40788C15.8548 8.42842 15.1772 7.40401 12.9935 6.85809C14.7501 6.84203 22.4733 6.85809 22.4733 6.85809C22.4733 6.85809 25.3667 11.6654 22.1361 17.8119V17.8119V17.8119Z" fill="#FCD900"/>
<path fill-rule="evenodd" clip-rule="evenodd" d="M1.87595 17.86C1.87595 17.86 -1.8267 12.0635 2.33517 5.46106C3.29536 7.12773 7.88112 15.0693 7.88112 15.0693C7.88112 15.0693 8.87021 16.9191 11.9627 17.1952C13.1413 17.1085 14.368 17.0347 15.9351 15.4194C15.0713 16.948 11.1952 23.6275 11.1952 23.6275C11.1952 23.6275 5.58182 23.7303 1.87595 17.86V17.86V17.86Z" fill="#61BC5B"/>
<path fill-rule="evenodd" clip-rule="evenodd" d="M11.1663 23.6726L12.727 17.16C12.727 17.16 14.4418 17.0251 15.8805 15.4484C14.9877 17.0187 11.1663 23.6726 11.1663 23.6726V23.6726V23.6726Z" fill="#5AB055"/>
<path fill-rule="evenodd" clip-rule="evenodd" d="M6.75391 12.0507C6.75391 9.17977 9.08211 6.85156 11.953 6.85156C14.824 6.85156 17.1522 9.17977 17.1522 12.0507C17.1522 14.9216 14.824 17.2498 11.953 17.2498C9.08211 17.2466 6.75391 14.9216 6.75391 12.0507V12.0507V12.0507Z" fill="white"/>
<path fill-rule="evenodd" clip-rule="evenodd" d="M7.62427 12.0508C7.62427 9.66156 9.56069 7.72192 11.9531 7.72192C14.3424 7.72192 16.282 9.65835 16.282 12.0508C16.282 14.44 14.3456 16.3796 11.9531 16.3796C9.56391 16.3796 7.62427 14.44 7.62427 12.0508V12.0508V12.0508Z" fill="url(#paint0_linear_183_553)"/>
<path fill-rule="evenodd" clip-rule="evenodd" d="M22.4703 6.86122L16.0444 8.74626C16.0444 8.74626 15.0746 7.32365 12.9905 6.86122C14.7985 6.85158 22.4703 6.86122 22.4703 6.86122V6.86122V6.86122Z" fill="#EACA05"/>
<path fill-rule="evenodd" clip-rule="evenodd" d="M6.94353 13.4444C6.04114 11.8805 2.32886 5.4707 2.32886 5.4707L7.08803 10.1785C7.08803 10.1785 6.59991 11.1836 6.78296 12.6223L6.94353 13.4444V13.4444V13.4444Z" fill="#DF3A32"/>
<defs>
<linearGradient id="paint0_linear_183_553" x1="7.78492" y1="7.78303" x2="7.78492" y2="16.119" gradientUnits="userSpaceOnUse">
<stop stop-color="#86BBE5"/>
<stop offset="1" stop-color="#1072BA"/>
</linearGradient>
</defs>
</svg>
